<svg width="38" height="41" viewBox="0 0 38 41" fill="none" xmlns="http://www.w3.org/2000/svg">
<path fill-rule="evenodd" clip-rule="evenodd" d="M20.9234 0.549805L17.0752 0.549805L17.0752 28.6121C16.4938 27.8678 15.8553 27.1629 15.1641 26.5037C13.293 24.7192 11.0717 23.3037 8.62701 22.338C6.18232 21.3723 3.56213 20.8752 0.916016 20.8752L0.916016 24.6458C9.8331 24.6458 17.0618 31.5613 17.0618 40.0919H20.9368C20.9368 31.5613 28.1655 24.6458 37.0826 24.6458V20.8752C34.4365 20.8752 31.8163 21.3723 29.3716 22.338C26.9269 23.3037 24.7056 24.7192 22.8345 26.5037C22.1433 27.1629 21.5048 27.8678 20.9234 28.6121L20.9234 0.549805Z" fill="#131313"/>
</svg>
